<mxfile host="65bd71144e">
    <diagram id="egCJQXx5akYZ2FTzE-84" name="Page-1">
        <mxGraphModel dx="921" dy="1256" grid="1" gridSize="10" guides="1" tooltips="1" connect="1" arrows="1" fold="1" page="0" pageScale="1" pageWidth="827" pageHeight="1169" math="0" shadow="0">
            <root>
                <mxCell id="0"/>
                <mxCell id="1" parent="0"/>
                <mxCell id="58" value="Kubernetes" style="rounded=1;whiteSpace=wrap;html=1;fillColor=none;arcSize=3;fontStyle=1;verticalAlign=top;strokeWidth=2;" vertex="1" parent="1">
                    <mxGeometry x="40" y="-280" width="410" height="340" as="geometry"/>
                </mxCell>
                <mxCell id="59" value="cockroachdb-1" style="shape=cylinder3;whiteSpace=wrap;html=1;boundedLbl=1;backgroundOutline=1;size=11;fillColor=#f8cecc;strokeColor=#b85450;strokeWidth=2;" vertex="1" parent="1">
                    <mxGeometry x="140" y="-140" width="130" height="80" as="geometry"/>
                </mxCell>
                <mxCell id="60" value="cockroachdb-0" style="shape=cylinder3;whiteSpace=wrap;html=1;boundedLbl=1;backgroundOutline=1;size=11;fillColor=#e1d5e7;strokeColor=#9673a6;strokeWidth=2;" vertex="1" parent="1">
                    <mxGeometry x="140" y="-240" width="130" height="80" as="geometry"/>
                </mxCell>
                <mxCell id="61" value="cockroachdb-2" style="shape=cylinder3;whiteSpace=wrap;html=1;boundedLbl=1;backgroundOutline=1;size=11;fillColor=#e1d5e7;strokeColor=#9673a6;strokeWidth=2;" vertex="1" parent="1">
                    <mxGeometry x="140" y="-40" width="130" height="80" as="geometry"/>
                </mxCell>
                <mxCell id="62" value="Chaos Mesh" style="rounded=1;whiteSpace=wrap;html=1;fillColor=default;strokeWidth=2;" vertex="1" parent="1">
                    <mxGeometry x="310" y="-130" width="120" height="60" as="geometry"/>
                </mxCell>
                <mxCell id="64" style="edgeStyle=none;html=1;entryX=1;entryY=0.5;entryDx=0;entryDy=0;entryPerimeter=0;endArrow=open;endFill=0;strokeWidth=2;dashed=1;" edge="1" parent="1" source="62" target="59">
                    <mxGeometry relative="1" as="geometry"/>
                </mxCell>
                <mxCell id="71" style="edgeStyle=none;html=1;strokeWidth=2;endArrow=none;endFill=0;fillColor=#d5e8d4;strokeColor=#82b366;" edge="1" parent="1" source="65" target="67">
                    <mxGeometry relative="1" as="geometry"/>
                </mxCell>
                <mxCell id="65" value="Workload" style="shape=umlActor;verticalLabelPosition=bottom;verticalAlign=top;html=1;outlineConnect=0;strokeWidth=2;" vertex="1" parent="1">
                    <mxGeometry x="-30" y="-130" width="30" height="60" as="geometry"/>
                </mxCell>
                <mxCell id="68" style="edgeStyle=none;html=1;strokeWidth=2;endArrow=none;endFill=0;fillColor=#d5e8d4;strokeColor=#82b366;" edge="1" parent="1" source="67" target="60">
                    <mxGeometry relative="1" as="geometry"/>
                </mxCell>
                <mxCell id="69" style="edgeStyle=none;html=1;strokeWidth=2;endArrow=none;endFill=0;fillColor=#f8cecc;strokeColor=#b85450;" edge="1" parent="1" source="67" target="59">
                    <mxGeometry relative="1" as="geometry"/>
                </mxCell>
                <mxCell id="70" style="edgeStyle=none;html=1;strokeWidth=2;endArrow=none;endFill=0;fillColor=#d5e8d4;strokeColor=#82b366;" edge="1" parent="1" source="67" target="61">
                    <mxGeometry relative="1" as="geometry"/>
                </mxCell>
                <mxCell id="67" value="LB" style="rounded=1;whiteSpace=wrap;html=1;fillColor=default;strokeWidth=2;" vertex="1" parent="1">
                    <mxGeometry x="60" y="-240" width="40" height="280" as="geometry"/>
                </mxCell>
            </root>
        </mxGraphModel>
    </diagram>
</mxfile>